<svg xmlns="http://www.w3.org/2000/svg" xml:space="preserve" width="1500" height="102" data-id="lg_CD4aMW67i4ZNRxQyGW" data-version="1" viewBox="0 0 1500 102"><g data-padding="20"><g transform="translate(10 3.168)scale(.93789)"><rect width="321.712" height="101.7" x="227.429" y="-400.35" fill="none" rx="0" ry="0" transform="translate(400.5 400.5)"/><path fill="#001f3f" d="M650.295 79.67q-5.94 0-10.71-2.07t-7.92-6.12l6.3-5.4q2.7 3.15 5.89 4.55 3.2 1.39 7.25 1.39 1.62 0 3.01-.4 1.4-.41 2.43-1.22 1.04-.81 1.58-1.93.54-1.13.54-2.48 0-2.34-1.71-3.78-.9-.63-2.84-1.39-1.93-.77-4.99-1.58-5.22-1.35-8.55-3.06t-5.13-3.87q-1.35-1.71-1.98-3.73-.63-2.03-.63-4.46 0-3.96 2.25-7.02t6.07-4.81q3.83-1.76 8.6-1.76 3.33 0 6.61.9 3.29.9 6.08 2.61t4.68 4.05l-5.31 5.85q-1.71-1.71-3.74-3.01-2.02-1.31-4.09-2.03t-3.78-.72q-1.89 0-3.42.36t-2.57 1.08q-1.03.72-1.57 1.8t-.54 2.43q.09 1.17.58 2.21.5 1.03 1.4 1.75.99.72 2.97 1.53t5.04 1.53q4.5 1.17 7.42 2.57 2.93 1.39 4.64 3.19 1.8 1.71 2.52 3.96t.72 5.04q0 4.05-2.3 7.25-2.29 3.19-6.16 4.99t-8.64 1.8m45.9 0q-6.93 0-12.38-3.19-5.44-3.2-8.59-8.73-3.15-5.54-3.15-12.65t3.15-12.64q3.15-5.54 8.59-8.73 5.45-3.2 12.38-3.2 6.84 0 12.28 3.2 5.45 3.19 8.6 8.73 3.15 5.53 3.15 12.64t-3.15 12.65q-3.15 5.53-8.6 8.73-5.44 3.19-12.28 3.19m0-8.46q4.23 0 7.56-2.11 3.33-2.12 5.22-5.76 1.89-3.65 1.8-8.24.09-4.68-1.8-8.32-1.89-3.65-5.22-5.72t-7.56-2.07-7.61 2.12q-3.37 2.11-5.26 5.76-1.89 3.64-1.8 8.23-.09 4.59 1.8 8.24 1.89 3.64 5.26 5.76 3.38 2.11 7.61 2.11m52.66 8.46q-6.93 0-12.38-3.19-5.44-3.2-8.59-8.73-3.15-5.54-3.15-12.65t3.15-12.64q3.15-5.54 8.59-8.73 5.45-3.2 12.38-3.2 6.84 0 12.28 3.2 5.45 3.19 8.6 8.73 3.15 5.53 3.15 12.64t-3.15 12.65q-3.15 5.53-8.6 8.73-5.44 3.19-12.28 3.19m0-8.46q4.23 0 7.56-2.11 3.33-2.12 5.22-5.76 1.89-3.65 1.8-8.24.09-4.68-1.8-8.32-1.89-3.65-5.22-5.72t-7.56-2.07-7.61 2.12q-3.37 2.11-5.26 5.76-1.89 3.64-1.8 8.23-.09 4.59 1.8 8.24 1.89 3.64 5.26 5.76 3.38 2.11 7.61 2.11m64.43 7.56h-35.01v-7.74l24.39-32.58v1.08h-24.39v-8.01h34.47v7.56l-24.03 32.13-.36-.45h24.93Zm29.88.9q-7.29 0-12.92-3.1-5.62-3.11-8.82-8.51-3.19-5.4-3.19-12.42 0-5.58 1.8-10.17t4.99-7.96q3.2-3.38 7.65-5.22 4.46-1.85 9.68-1.85 4.59 0 8.55 1.76 3.96 1.75 6.88 4.81 2.93 3.06 4.5 7.25 1.58 4.18 1.49 9.13l-.09 3.96h-38.61l-2.07-7.38h32.67l-1.35 1.53v-2.16q-.27-2.97-1.98-5.31t-4.32-3.69-5.67-1.35q-4.86 0-8.19 1.85-3.33 1.84-5.04 5.4-1.71 3.55-1.71 8.77 0 4.95 2.07 8.6 2.07 3.64 5.85 5.62t8.73 1.98q3.51 0 6.52-1.17 3.02-1.17 6.53-4.23l4.68 6.57q-2.16 2.16-5.27 3.78-3.1 1.62-6.57 2.57-3.46.94-6.79.94m50.04 0q-7.29 0-12.92-3.1-5.62-3.11-8.82-8.51-3.19-5.4-3.19-12.42 0-5.58 1.8-10.17t4.99-7.96q3.2-3.38 7.65-5.22 4.46-1.85 9.68-1.85 4.59 0 8.55 1.76 3.96 1.75 6.88 4.81 2.93 3.06 4.5 7.25 1.58 4.18 1.49 9.13l-.09 3.96h-38.61l-2.07-7.38h32.67l-1.35 1.53v-2.16q-.27-2.97-1.98-5.31t-4.32-3.69-5.67-1.35q-4.86 0-8.19 1.85-3.33 1.84-5.04 5.4-1.71 3.55-1.71 8.77 0 4.95 2.07 8.6 2.07 3.64 5.85 5.62t8.73 1.98q3.51 0 6.52-1.17 3.02-1.17 6.53-4.23l4.68 6.57q-2.16 2.16-5.27 3.78-3.1 1.62-6.57 2.57-3.46.94-6.79.94m37.35-.9h-9.36V31.52h9.36v14.85l-.9-3.6q.99-3.42 3.37-6.21 2.39-2.79 5.49-4.41 3.11-1.62 6.44-1.62 1.53 0 2.92.27 1.4.27 2.21.63l-2.43 10.08q-1.08-.45-2.39-.76-1.3-.32-2.56-.32-2.43 0-4.64.95-2.2.94-3.87 2.61-1.66 1.66-2.65 3.87-.99 2.2-.99 4.81Z"/></g><path fill="transparent" stroke="transparent" d="M589 0h322v102H589z"/></g></svg>